<svg width="15" height="14" viewBox="0 0 15 14" fill="none" xmlns="http://www.w3.org/2000/svg">
<path fill-rule="evenodd" clip-rule="evenodd" d="M9.29114 6.38767C9.39174 5.86651 9.44443 5.32828 9.44443 4.77774V1H1.00007V13.2221C3.04496 13.2221 4.92008 12.4952 6.38117 11.2858C7.83881 12.2569 10.1761 13.1799 13 12.6665C12.2222 12.3332 9.22226 10.3332 9.33337 6.33324C9.31987 6.35181 9.30579 6.36995 9.29114 6.38767Z" fill="#278EFF"/>
<path d="M9.29114 6.38767L9.60174 6.64434L8.89552 6.3113L9.29114 6.38767ZM9.44443 1V0.597074H9.84735V1H9.44443ZM1.00007 1H0.597144V0.597074H1.00007V1ZM1.00007 13.2221V13.625H0.597144V13.2221H1.00007ZM6.38117 11.2858L6.12424 10.9754L6.35512 10.7843L6.60456 10.9505L6.38117 11.2858ZM13 12.6665L13.1587 12.2962L14.3891 12.8235L13.0721 13.0629L13 12.6665ZM9.33337 6.33324L9.00751 6.09625L9.77224 5.04476L9.73614 6.34443L9.33337 6.33324ZM9.84735 4.77774C9.84735 5.35404 9.7922 5.91784 9.68676 6.46404L8.89552 6.3113C8.99129 5.81518 9.0415 5.30252 9.0415 4.77774H9.84735ZM9.84735 1V4.77774H9.0415V1H9.84735ZM1.00007 0.597074H9.44443V1.40293H1.00007V0.597074ZM0.597144 13.2221V1H1.403V13.2221H0.597144ZM6.63809 11.5962C5.10742 12.8632 3.14217 13.625 1.00007 13.625V12.8192C2.94774 12.8192 4.73273 12.1273 6.12424 10.9754L6.63809 11.5962ZM13.0721 13.0629C10.1199 13.5997 7.67784 12.6338 6.15777 11.6211L6.60456 10.9505C7.99977 11.88 10.2324 12.7602 12.9279 12.2701L13.0721 13.0629ZM9.73614 6.34443C9.68368 8.2332 10.3635 9.64249 11.148 10.6232C11.9404 11.6137 12.8316 12.1559 13.1587 12.2962L12.8413 13.0369C12.3907 12.8437 11.3929 12.2193 10.5187 11.1266C9.63661 10.0239 8.87196 8.43324 8.9306 6.32205L9.73614 6.34443ZM8.98055 6.131C8.98998 6.11958 8.99897 6.10799 9.00751 6.09625L9.65923 6.57023C9.64077 6.59562 9.62159 6.62032 9.60174 6.64434L8.98055 6.131Z" fill="#278EFF"/>
</svg>
